<svg width="42" height="47" viewBox="0 0 42 47" fill="none" xmlns="http://www.w3.org/2000/svg">
<path d="M16 17.9742H19M16 24.1665H25M16 27.705H25M16 31.2434H19M14.5 35.6665H26.5C26.8978 35.6665 27.2794 35.4801 27.5607 35.1483C27.842 34.8165 28 34.3665 28 33.8973V14.4357C28 13.9665 27.842 13.5165 27.5607 13.1847C27.2794 12.8529 26.8978 12.6665 26.5 12.6665H14.5C14.1022 12.6665 13.7206 12.8529 13.4393 13.1847C13.158 13.5165 13 13.9665 13 14.4357V33.8973C13 34.3665 13.158 34.8165 13.4393 35.1483C13.7206 35.4801 14.1022 35.6665 14.5 35.6665Z" stroke="#F64C46" stroke-width="2" stroke-linecap="round" stroke-linejoin="round"/>
</svg>
