<?xml version="1.0" encoding="UTF-8"?>
<svg version="1.1" xmlns="http://www.w3.org/2000/svg" width="19" height="26">
<path d="M0 0 C5.61 0 11.22 0 17 0 C17.02682614 3.97921094 17.04675393 7.95824341 17.0625 11.9375 C17.07087891 13.07380859 17.07925781 14.21011719 17.08789062 15.38085938 C17.09272461 17.00024414 17.09272461 17.00024414 17.09765625 18.65234375 C17.10551147 20.15269165 17.10551147 20.15269165 17.11352539 21.68334961 C17 24 17 24 16 25 C13.48863896 25.09975032 11.01096585 25.13882183 8.5 25.125 C7.79746094 25.12886719 7.09492187 25.13273437 6.37109375 25.13671875 C1.12661378 25.12661378 1.12661378 25.12661378 0 24 C-0.08726223 22.21928754 -0.10699041 20.4351686 -0.09765625 18.65234375 C-0.09443359 17.57275391 -0.09121094 16.49316406 -0.08789062 15.38085938 C-0.07951172 14.24455078 -0.07113281 13.10824219 -0.0625 11.9375 C-0.05798828 10.79732422 -0.05347656 9.65714844 -0.04882812 8.48242188 C-0.0369976 5.65492582 -0.0190615 2.82745655 0 0 Z M2 2 C2 8.6 2 15.2 2 22 C6.29 22 10.58 22 15 22 C15 15.4 15 8.8 15 2 C10.71 2 6.42 2 2 2 Z " fill="#F7635E" transform="translate(0,0)"/>
<path d="M0 0 C3.63 0 7.26 0 11 0 C11 1.98 11 3.96 11 6 C7.37 6 3.74 6 0 6 C0 4.02 0 2.04 0 0 Z " fill="#F98D89" transform="translate(3,11)"/>
<path d="M0 0 C1.65 0 3.3 0 5 0 C5 0.99 5 1.98 5 3 C3.35 3 1.7 3 0 3 C0 2.01 0 1.02 0 0 Z " fill="#F99390" transform="translate(3,18)"/>
<path d="M0 0 C1.65 0 3.3 0 5 0 C5 0.66 5 1.32 5 2 C3.35 2 1.7 2 0 2 C0 1.34 0 0.68 0 0 Z " fill="#F65852" transform="translate(3,5)"/>
</svg>
