<svg width="20" height="24" viewBox="0 0 20 24" fill="none" xmlns="http://www.w3.org/2000/svg">
<path d="M15.13 11.5612L16.39 10.036C16.83 9.50335 17.39 9.21282 18 9.14019V7.92966L12 0.666504H2C0.89 0.666504 0 1.74387 0 3.08756V20.0349C0 20.677 0.210714 21.2928 0.585786 21.7469C0.960859 22.2009 1.46957 22.456 2 22.456H8V20.1923L8.13 20.0349H2V3.08756H9V11.5612H15.13ZM11 2.48229L16.5 9.14019H11V2.48229ZM16.13 13.7765L18.17 16.246L12.04 23.6665H10V21.197L16.13 13.7765ZM19.85 14.2123L18.87 15.3986L16.83 12.9291L17.81 11.7428C18 11.5007 18.33 11.5007 18.53 11.7428L19.85 13.3407C20.05 13.5828 20.05 13.9823 19.85 14.2123Z" fill="#F64C46"/>
</svg>
