<svg width="22" height="23" viewBox="0 0 22 23" fill="none" xmlns="http://www.w3.org/2000/svg">
<path d="M9.29063 0.599981C9.77542 0.211618 10.3781 0 10.9992 0C11.6204 0 12.223 0.211618 12.7078 0.599981L20.9109 7.16248C21.5594 7.68123 21.9375 8.46717 21.9375 9.29842V20.2656C21.9375 20.9908 21.6494 21.6863 21.1366 22.1991C20.6238 22.7119 19.9283 23 19.2031 23H13.7344C13.4236 23 13.1255 22.8765 12.9057 22.6567C12.686 22.437 12.5625 22.1389 12.5625 21.8281V13.625H9.4375V21.8281C9.4375 22.1389 9.31404 22.437 9.09427 22.6567C8.8745 22.8765 8.57643 23 8.26562 23H2.79688C2.07167 23 1.37617 22.7119 0.86338 22.1991C0.350585 21.6863 0.0625 20.9908 0.0625 20.2656V9.29685C0.0625 8.46717 0.440625 7.68123 1.08906 7.16248L9.29063 0.599981ZM11.2438 2.42967C11.1745 2.37439 11.0886 2.34429 11 2.34429C10.9114 2.34429 10.8255 2.37439 10.7562 2.42967L2.55313 8.99217C2.50717 9.02886 2.47009 9.07547 2.44466 9.12849C2.41923 9.18152 2.4061 9.23961 2.40625 9.29842V20.2656C2.40625 20.4812 2.58125 20.6562 2.79688 20.6562H7.09375V12.4531C7.09375 12.1423 7.21722 11.8442 7.43698 11.6245C7.65675 11.4047 7.95482 11.2812 8.26562 11.2812H13.7344C14.0452 11.2812 14.3432 11.4047 14.563 11.6245C14.7828 11.8442 14.9062 12.1423 14.9062 12.4531V20.6562H19.2031C19.3067 20.6562 19.4061 20.6151 19.4793 20.5418C19.5526 20.4686 19.5938 20.3692 19.5938 20.2656V9.29685C19.5937 9.23831 19.5804 9.18053 19.555 9.12779C19.5296 9.07505 19.4926 9.0287 19.4469 8.99217L11.2438 2.42967Z" fill="#F64C46"/>
</svg>
