<svg width="20" height="24" viewBox="0 0 20 24" fill="none" xmlns="http://www.w3.org/2000/svg">
<path d="M17.7332 16.29C16.5447 15.2174 16.3624 14.8744 15.5671 9.98043C14.8916 5.82366 13.4109 4.53132 11.5723 3.8557C11.6742 3.59941 11.7353 3.31586 11.7353 3.01431C11.7353 2.48008 11.5525 1.96774 11.227 1.58998C10.9016 1.21222 10.4602 1 10 1C9.53979 1 9.09841 1.21222 8.77298 1.58998C8.44755 1.96774 8.26473 2.48008 8.26473 3.01431C8.26473 3.31586 8.3258 3.59887 8.42773 3.8557C6.58957 4.53186 5.10843 5.8242 4.43292 9.98043C3.63762 14.8744 3.45582 15.2174 2.26734 16.2895C1.03939 17.3975 1.07885 19.9484 2.71267 19.9484H7.62821C7.647 21.4534 8.69972 22.6667 10 22.6667C11.3003 22.6667 12.3535 21.4528 12.3718 19.9489H17.2869C18.9212 19.9489 18.9606 17.397 17.7332 16.29Z" stroke="#F64C46" stroke-width="2" stroke-linecap="round" stroke-linejoin="round"/>
</svg>
